<?xml version="1.0" standalone="no"?>
<!DOCTYPE svg PUBLIC "-//W3C//DTD SVG 20010904//EN"
 "http://www.w3.org/TR/2001/REC-SVG-20010904/DTD/svg10.dtd">
<svg version="1.0" xmlns="http://www.w3.org/2000/svg"
 width="540.000000pt" height="540.000000pt" viewBox="0 0 540.000000 540.000000"
 preserveAspectRatio="xMidYMid meet">
<metadata>
Created by potrace 1.11, written by Peter Selinger 2001-2013
</metadata>
<g transform="translate(0.000000,540.000000) scale(0.100000,-0.100000)"
fill="#000000" stroke="none">
<path d="M2958 5323 c7 -3 16 -2 19 1 4 3 -2 6 -13 5 -11 0 -14 -3 -6 -6z"/>
<path d="M3228 5283 c7 -3 16 -2 19 1 4 3 -2 6 -13 5 -11 0 -14 -3 -6 -6z"/>
<path d="M3318 5263 c6 -2 18 -2 25 0 6 3 1 5 -13 5 -14 0 -19 -2 -12 -5z"/>
<path d="M2110 5250 c-13 -8 -13 -10 2 -10 9 0 20 5 23 10 8 13 -5 13 -25 0z"/>
<path d="M2158 5243 c7 -3 16 -2 19 1 4 3 -2 6 -13 5 -11 0 -14 -3 -6 -6z"/>
<path d="M3830 5086 c23 -14 1 -15 -260 -17 -157 -2 -298 -4 -315 -5 -105 -8
-142 -12 -157 -19 -9 -4 -21 -4 -26 -1 -5 3 -24 1 -43 -4 -18 -5 -67 -12 -109
-16 -41 -3 -80 -6 -85 -6 -6 -1 -24 2 -40 6 -19 4 -25 3 -17 -2 11 -7 7 -11
-13 -16 -14 -4 -30 -4 -35 -1 -6 4 -10 2 -10 -3 0 -11 -117 -33 -137 -25 -11
4 -14 2 -9 -5 5 -8 -2 -12 -21 -12 -15 0 -50 -7 -77 -15 -56 -17 -78 -19 -56
-5 10 7 11 10 2 10 -7 0 -15 -6 -18 -14 -3 -7 -24 -17 -47 -20 -23 -4 -72 -16
-108 -27 -37 -10 -75 -16 -85 -12 -11 4 -15 3 -11 -4 7 -11 -49 -27 -64 -17
-5 3 -9 1 -9 -4 0 -5 -6 -9 -12 -9 -7 -1 -51 -13 -98 -28 -47 -15 -97 -30
-112 -35 -28 -9 -38 -5 -34 13 2 7 1 9 -1 5 -3 -5 -12 -8 -21 -9 -13 0 -13 -2
3 -8 16 -7 6 -12 -48 -29 -38 -11 -76 -18 -85 -15 -15 4 -15 3 -2 -7 12 -9 10
-10 -13 -5 -20 4 -27 2 -22 -5 4 -7 1 -10 -6 -9 -8 1 -21 -1 -29 -4 -42 -19
-136 -47 -154 -47 -12 0 -30 -7 -40 -15 -22 -17 -50 -20 -41 -5 3 6 1 10 -4
10 -6 0 -11 -6 -11 -14 0 -12 -35 -27 -75 -32 -5 0 -23 -6 -38 -13 -16 -6 -33
-9 -38 -5 -5 3 -9 1 -9 -5 0 -5 -15 -13 -33 -16 -17 -4 -79 -22 -136 -41 -57
-18 -108 -31 -113 -28 -4 3 -8 0 -8 -7 0 -7 -8 -9 -21 -6 -12 3 -18 3 -15 0 3
-4 -43 -39 -103 -79 -206 -136 -284 -209 -407 -380 -158 -220 -315 -703 -345
-1064 -16 -189 -6 -537 19 -655 25 -116 74 -275 117 -376 91 -216 281 -462
493 -640 84 -70 259 -196 312 -225 11 -6 17 -14 13 -18 -4 -4 0 -4 8 -1 9 3
22 -1 29 -10 7 -8 18 -15 24 -15 6 0 27 -10 46 -22 35 -22 40 -24 61 -27 5 0
7 -5 4 -11 -3 -6 1 -7 9 -4 19 7 22 -12 4 -20 -7 -3 0 -2 16 1 20 4 27 2 22
-5 -4 -7 2 -9 19 -6 23 4 25 1 24 -28 0 -18 -4 -42 -8 -53 -13 -33 36 -112
106 -170 70 -58 281 -186 421 -257 51 -26 175 -81 275 -124 144 -62 195 -79
244 -82 61 -4 62 -4 82 29 12 19 21 46 21 60 0 23 3 25 33 22 34 -3 28 2 -14
11 -21 5 -29 15 -37 48 -6 24 -24 63 -39 88 -16 25 -37 62 -48 83 -11 20 -23
37 -27 37 -5 0 -8 6 -8 13 0 8 -11 24 -25 37 -14 13 -23 26 -20 29 3 3 27 4
52 2 34 -2 56 -11 81 -31 28 -23 39 -27 59 -19 36 14 43 9 8 -6 -20 -9 -30
-20 -30 -36 0 -32 24 -59 52 -59 21 0 51 -36 39 -47 -3 -4 3 -12 14 -20 11 -8
20 -20 20 -26 0 -7 4 -18 9 -25 7 -12 12 -12 31 0 18 10 24 10 27 1 3 -7 13
-13 23 -13 29 0 33 -17 5 -24 -25 -6 -34 -30 -15 -41 6 -4 8 -10 5 -15 -3 -5
4 -8 16 -7 13 1 32 17 48 42 14 22 32 46 38 53 7 7 32 43 56 80 24 37 51 73
60 81 9 7 17 20 17 29 0 8 11 30 25 48 14 18 25 36 25 41 0 4 12 22 28 38 15
16 26 31 25 32 -3 6 10 43 16 43 4 0 15 16 25 35 11 19 23 35 28 35 5 0 7 4 3
9 -3 5 0 16 7 23 15 16 42 60 65 106 9 17 20 32 25 32 12 0 -69 -143 -187
-330 -12 -19 -46 -73 -75 -120 -29 -47 -60 -92 -69 -100 -9 -9 -17 -21 -19
-28 -1 -7 -23 -44 -49 -83 -38 -58 -44 -72 -32 -80 8 -5 19 -9 25 -9 7 0 14
-10 18 -23 8 -32 69 -114 73 -100 2 6 -7 34 -22 62 -19 38 -22 52 -13 55 7 2
34 11 60 18 27 9 52 11 60 6 13 -8 89 -9 121 -1 23 6 22 26 -3 48 -21 19 -27
45 -10 45 10 0 32 -35 25 -42 -2 -2 9 -9 26 -15 26 -10 33 -9 50 8 10 10 25
19 32 20 6 0 0 5 -15 11 -16 5 -28 14 -28 19 0 5 -7 9 -15 9 -8 0 -15 5 -15
11 0 6 14 2 33 -9 24 -14 41 -17 70 -12 53 10 65 24 42 50 -10 11 -14 20 -9
20 5 0 15 -9 22 -20 15 -24 44 -26 77 -4 27 18 32 43 13 63 -11 11 -9 11 9 2
17 -9 26 -7 45 9 21 19 22 21 6 30 -10 6 -18 16 -18 22 0 6 3 8 7 5 3 -4 14 7
24 23 11 17 23 30 29 30 6 0 10 6 9 13 -7 53 5 54 20 0 10 -34 30 -78 45 -98
15 -19 25 -39 22 -44 -4 -5 4 -7 16 -3 16 4 20 2 15 -10 -4 -12 -1 -14 14 -11
10 3 19 0 19 -6 0 -6 -6 -11 -12 -12 -16 -1 77 -24 155 -39 77 -15 200 8 299
55 40 19 78 35 84 35 6 0 45 22 85 48 116 76 224 201 308 357 18 33 36 65 41
70 4 6 8 17 8 25 1 8 5 49 9 90 10 89 7 107 -15 113 -15 4 -15 5 1 6 10 0 25
8 34 16 14 14 14 18 -1 34 -18 20 -22 66 -6 76 5 3 10 22 10 41 0 32 2 35 23
29 15 -4 18 -3 8 3 -9 7 -10 12 -2 16 6 4 38 38 70 76 33 38 62 66 65 63 3 -4
6 -1 6 6 0 12 9 25 43 62 16 17 21 18 34 7 15 -12 15 -11 3 8 -12 19 -10 27
24 70 76 101 106 144 106 153 0 5 10 18 23 28 12 10 24 27 25 38 5 26 22 46
33 39 5 -3 6 3 2 12 -4 12 -3 15 5 10 8 -5 10 -2 6 8 -3 9 -1 16 5 16 6 0 11
7 11 15 0 9 11 33 25 55 14 22 42 72 61 110 20 39 41 70 46 70 5 0 6 4 3 10
-9 14 65 161 78 153 6 -3 7 -1 3 6 -12 20 4 53 22 46 13 -5 14 -4 5 6 -7 7 -9
18 -4 28 20 38 84 292 108 428 24 135 26 178 30 481 6 420 -6 519 -93 787
-115 350 -305 578 -598 715 -150 71 -305 104 -575 121 -158 10 -235 21 -296
43 -13 5 -11 2 5 -8z m-404 -55 c-4 -5 12 -5 35 0 38 9 122 8 634 -5 624 -16
992 -275 1175 -825 80 -240 105 -447 97 -791 -7 -273 -43 -562 -81 -660 -14
-34 -27 -73 -27 -77 0 -3 -35 -90 -64 -161 -13 -31 -20 -40 -26 -30 -7 9 -9 8
-7 -7 0 -11 0 -29 -1 -40 -1 -17 -3 -18 -12 -5 -8 12 -9 11 -5 -5 3 -11 -6
-40 -20 -65 -14 -25 -23 -37 -20 -27 4 11 2 16 -5 12 -6 -4 -8 -13 -5 -21 6
-17 -13 -64 -26 -64 -5 0 -6 -5 -3 -10 3 -6 2 -10 -3 -10 -5 0 -9 -6 -9 -13 0
-24 -106 -206 -116 -200 -6 3 -7 1 -3 -5 7 -11 -71 -144 -97 -167 -7 -6 -20
-24 -29 -40 -9 -17 -21 -30 -27 -30 -5 0 -13 -4 -18 -9 -5 -5 -2 -6 6 -1 9 5
12 3 9 -6 -3 -8 -11 -13 -17 -11 -7 1 -9 -3 -5 -9 3 -6 2 -14 -2 -18 -5 -3
-25 -26 -44 -51 -46 -59 -69 -86 -105 -124 -16 -17 -40 -44 -52 -59 -19 -24
-25 -27 -43 -17 -23 12 -52 69 -43 84 3 4 0 11 -6 15 -8 5 -7 16 5 39 18 37
13 87 -16 165 -37 98 -100 148 -140 112 -22 -20 -19 -64 4 -77 26 -15 57 -99
60 -163 1 -28 -5 -33 -70 -65 -128 -63 -141 -75 -187 -181 -14 -33 -14 -39 -1
-58 14 -19 11 -25 -8 -22 -5 0 -7 -2 -7 -7 4 -23 -3 -34 -17 -28 -8 3 -12 2
-9 -4 15 -24 -178 -155 -212 -144 -12 4 -14 3 -5 -3 8 -7 -3 -16 -38 -31 -28
-12 -53 -22 -56 -22 -14 0 -181 -85 -221 -112 -38 -26 -65 -25 -48 2 3 5 0 7
-8 4 -8 -3 -18 -1 -22 5 -4 7 3 11 18 11 13 0 32 9 43 21 18 20 18 21 -1 35
-10 8 -22 14 -27 14 -20 0 -5 19 22 29 39 13 38 25 -5 51 -42 26 -44 34 -7 25
44 -9 82 9 82 40 0 15 -5 36 -11 47 -8 14 -8 23 0 31 14 14 14 54 1 62 -6 4
-4 17 5 36 14 26 14 32 1 58 -10 18 -13 42 -9 66 7 43 -5 55 -55 55 -23 0 -31
4 -26 12 5 8 -9 10 -53 6 l-60 -6 4 38 c2 24 -1 41 -11 49 -12 10 -20 4 -48
-33 -18 -25 -38 -47 -45 -50 -6 -3 -20 12 -31 32 -39 76 -104 81 -110 8 -3
-30 -7 -36 -26 -36 -13 0 -42 14 -65 31 -42 30 -76 33 -65 5 6 -15 -3 -19 -63
-31 -29 -6 -33 -11 -42 -58 -9 -44 -18 -98 -20 -130 -1 -4 -17 4 -36 19 -20
15 -34 32 -31 39 9 23 -10 38 -33 26 -11 -7 -21 -9 -21 -7 0 3 -11 1 -24 -4
-21 -7 -26 -6 -31 10 -3 11 -1 28 4 39 23 43 -50 52 -93 12 l-24 -23 -11 38
c-6 22 -11 45 -11 52 0 6 -7 12 -15 12 -16 0 -41 -38 -36 -59 1 -7 -12 -2 -32
13 -20 15 -38 23 -41 17 -4 -6 -18 -6 -35 -1 -31 9 -51 1 -54 -22 -2 -8 -12
-27 -24 -42 -12 -15 -19 -34 -16 -42 3 -8 -2 -23 -12 -34 -10 -11 -15 -26 -11
-36 4 -11 -1 -22 -14 -31 -19 -13 -30 -75 -12 -72 4 1 18 0 32 -1 24 -2 24 -2
-7 -16 -38 -16 -39 -21 -16 -46 15 -17 15 -18 -5 -18 -28 0 -31 -44 -5 -55 16
-6 15 -8 -7 -18 -14 -5 -29 -9 -33 -8 -5 1 -6 -3 -2 -9 4 -6 -1 -23 -11 -38
-12 -19 -13 -23 -3 -15 12 10 18 7 32 -16 15 -25 15 -30 2 -41 -22 -18 -19
-28 14 -48 28 -17 28 -19 11 -30 -16 -10 -18 -24 -17 -117 2 -99 1 -105 -18
-106 -13 -1 -10 -4 10 -9 l30 -8 -30 -1 c-37 -1 -115 20 -97 26 10 4 8 9 -7
20 -12 8 -21 21 -21 29 0 8 -3 13 -7 12 -5 -1 -66 55 -136 125 -70 70 -132
127 -138 127 -6 0 -7 5 -4 10 3 6 -3 10 -14 10 -12 0 -21 4 -21 8 0 5 -44 30
-97 57 -107 53 -188 68 -256 46 -36 -12 -117 -84 -117 -104 -1 -18 -29 36 -30
56 0 9 -3 17 -7 17 -13 0 -43 61 -36 72 3 6 2 8 -4 5 -13 -8 -106 121 -97 135
4 6 3 8 -3 5 -6 -4 -16 0 -23 8 -18 22 -48 18 -55 -6 -7 -20 -10 -19 -45 20
-37 40 -62 49 -88 33 -7 -5 -10 -15 -7 -24 3 -8 -20 10 -52 39 -58 54 -90 70
-118 59 -8 -3 -15 -16 -15 -29 0 -25 46 -103 73 -126 9 -7 14 -18 10 -24 -3
-5 -2 -8 3 -6 5 2 31 -17 58 -43 l48 -48 -30 0 c-19 0 -35 -7 -40 -17 -9 -15
-12 -15 -45 3 -104 55 -335 273 -443 418 -154 205 -262 457 -310 721 -25 136
-30 465 -10 640 27 234 75 435 158 665 69 191 155 343 269 479 92 110 257 240
309 244 11 1 20 5 20 10 0 5 7 7 15 3 8 -3 14 0 12 6 -2 13 104 69 117 61 4
-3 12 0 16 7 4 7 21 13 38 14 17 0 28 4 26 7 -4 8 124 42 159 42 17 0 24 3 17
7 -8 5 0 11 21 15 19 4 59 15 89 25 138 45 264 83 279 84 9 1 25 6 36 12 33
18 264 85 300 87 18 1 31 5 29 8 -2 3 22 13 54 22 204 58 240 66 262 61 16 -4
21 -3 13 3 -13 9 233 72 307 78 19 2 58 10 85 18 53 15 131 29 180 31 17 0 35
4 40 7 9 6 163 27 205 28 8 0 51 5 95 11 44 7 103 9 131 7 28 -3 57 -1 65 4
18 11 42 12 35 0z m976 -3239 c19 -37 39 -125 36 -159 -1 -12 -8 -25 -16 -28
-10 -3 -11 3 -6 29 7 38 -20 146 -37 146 -6 0 -8 4 -4 9 3 5 1 12 -5 16 -14 9
-12 25 3 23 6 -2 20 -18 29 -36z m28 -252 c0 -15 10 -40 22 -56 19 -24 23 -40
21 -94 0 -36 -6 -78 -12 -93 -15 -40 -43 -32 -56 17 -6 21 -19 44 -30 52 -11
8 -18 25 -18 46 1 26 -1 29 -7 13 -7 -19 -8 -18 -20 8 -7 15 -17 27 -22 27 -5
0 -6 4 -3 10 3 6 -1 7 -10 4 -14 -6 -13 -8 5 -21 24 -17 26 -51 5 -79 -14 -18
-14 -17 -5 9 12 35 12 40 1 33 -5 -4 -7 4 -3 16 4 18 2 20 -14 13 -10 -4 -26
-8 -35 -9 -9 0 -15 -6 -12 -13 5 -14 -12 -18 -20 -5 -2 4 -2 1 -1 -5 4 -16
-34 -43 -59 -43 -10 0 -17 3 -15 8 2 4 12 25 22 47 10 22 28 51 39 63 28 31
114 75 129 66 7 -4 8 -3 4 4 -9 15 8 15 37 2 18 -9 19 -8 5 2 -15 11 -15 13 0
24 23 17 52 -9 52 -46z m-3596 -141 c-3 -5 0 -8 8 -7 7 2 12 -3 11 -9 -2 -7 1
-12 6 -10 5 1 24 -12 44 -30 l35 -32 28 22 c22 17 27 18 21 5 -4 -13 -2 -15
10 -11 11 4 14 2 9 -5 -4 -7 -1 -12 7 -12 7 0 24 -11 37 -25 25 -27 56 -33 62
-13 3 9 9 8 21 -4 9 -9 17 -20 17 -23 0 -4 15 -25 33 -48 40 -52 67 -100 67
-121 0 -9 5 -16 10 -16 6 0 10 -5 10 -10 0 -6 -12 -8 -27 -5 -25 5 -25 3 6
-10 56 -27 29 -26 -75 1 -54 15 -109 28 -121 31 -13 3 -23 10 -23 15 0 5 -4 7
-8 4 -4 -2 -14 -1 -22 5 -12 7 -12 9 3 9 52 0 13 69 -40 71 -27 0 -27 1 -5 9
34 14 27 34 -29 87 -51 48 -149 165 -149 178 0 3 14 -3 30 -15 17 -12 28 -26
24 -31z m3339 -86 c-57 -90 -187 -214 -220 -209 -10 2 -12 1 -5 -1 17 -6 -3
-33 -24 -33 -8 0 -14 -4 -14 -8 0 -12 -187 -100 -228 -108 -18 -4 -35 -11 -38
-15 -3 -5 -16 -9 -29 -9 -13 0 -27 -5 -31 -11 -3 -6 -17 -9 -30 -6 -13 2 -24
0 -24 -4 0 -5 -5 -9 -12 -9 -6 0 -4 8 6 19 10 11 25 17 34 14 10 -4 13 -2 8 5
-4 7 0 15 11 19 10 4 33 17 51 29 18 13 54 30 80 40 189 69 373 184 432 269
33 48 62 64 33 18z m-3232 -181 c-13 -2 -27 0 -32 5 -6 6 3 7 23 4 28 -4 29
-6 9 -9z m2164 -62 c-9 -16 -18 -30 -21 -30 -2 0 2 14 11 30 9 17 18 30 21 30
2 0 -2 -13 -11 -30z m-760 -120 c7 -12 -2 -12 -30 0 -19 8 -19 9 2 9 12 1 25
-3 28 -9z m-1045 -160 c15 -16 25 -31 23 -34 -7 -6 -53 15 -53 25 0 4 -3 14
-6 23 -9 25 5 19 36 -14z m2026 -19 c5 -5 18 -11 29 -14 11 -3 -1 -5 -27 -6
-27 0 -48 3 -48 8 0 5 -10 7 -22 3 -14 -3 -19 -2 -14 6 8 14 68 16 82 3z
m-1946 -56 c0 -8 6 -15 13 -15 7 0 22 -8 33 -18 10 -10 43 -31 71 -48 57 -31
57 -32 44 -53 -8 -12 -19 -9 -65 20 -79 49 -165 112 -161 119 2 3 17 6 34 7
21 2 31 -2 31 -12z m2540 -125 c-8 -5 -22 -9 -30 -9 -10 0 -8 3 5 9 27 12 43
12 25 0z m-2270 -40 c63 -32 69 -40 46 -60 -12 -9 -27 -4 -78 25 -75 44 -72
41 -63 54 10 17 32 13 95 -19z m185 -92 c84 -42 96 -53 74 -75 -9 -9 -35 0
-103 34 -50 25 -93 47 -95 49 -6 5 20 34 30 34 5 0 47 -19 94 -42z m208 -99
c67 -23 75 -31 57 -59 -7 -12 -21 -9 -87 20 -43 18 -80 35 -82 36 -8 7 23 34
33 30 6 -2 41 -15 79 -27z m150 -76 c34 -17 68 -26 99 -27 38 0 45 -2 36 -13
-15 -19 -65 -16 -139 8 -76 26 -71 22 -63 43 8 20 5 21 67 -11z"/>
<path d="M3248 5013 c6 -2 18 -2 25 0 6 3 1 5 -13 5 -14 0 -19 -2 -12 -5z"/>
<path d="M2818 4933 c6 -2 18 -2 25 0 6 3 1 5 -13 5 -14 0 -19 -2 -12 -5z"/>
<path d="M2098 4793 c7 -3 16 -2 19 1 4 3 -2 6 -13 5 -11 0 -14 -3 -6 -6z"/>
<path d="M2048 4783 c7 -3 16 -2 19 1 4 3 -2 6 -13 5 -11 0 -14 -3 -6 -6z"/>
<path d="M1805 4690 c-13 -6 -15 -9 -5 -9 8 0 22 4 30 9 18 12 2 12 -25 0z"/>
<path d="M1550 4610 c-8 -5 -10 -10 -5 -10 6 0 17 5 25 10 8 5 11 10 5 10 -5
0 -17 -5 -25 -10z"/>
<path d="M1318 4553 c7 -3 16 -2 19 1 4 3 -2 6 -13 5 -11 0 -14 -3 -6 -6z"/>
<path d="M1058 4473 c7 -3 16 -2 19 1 4 3 -2 6 -13 5 -11 0 -14 -3 -6 -6z"/>
<path d="M725 4310 c-3 -5 -1 -10 4 -10 6 0 11 5 11 10 0 6 -2 10 -4 10 -3 0
-8 -4 -11 -10z"/>
<path d="M882 3476 c-29 -6 -50 -15 -46 -19 4 -4 1 -7 -6 -7 -7 0 -23 -12 -36
-27 -29 -33 -33 -106 -8 -141 8 -12 13 -26 10 -30 -3 -5 1 -9 8 -9 14 0 73
-40 94 -63 12 -13 13 -13 6 0 -6 11 -2 10 13 -2 11 -10 24 -18 30 -18 6 0 28
-16 49 -35 21 -19 34 -35 28 -35 -5 0 -3 -4 5 -9 13 -8 13 -12 0 -27 -8 -11
-9 -15 -2 -10 9 5 11 2 7 -9 -4 -8 -17 -18 -30 -21 -13 -3 -24 -10 -24 -15 0
-13 -67 -11 -93 4 -37 20 -57 39 -51 48 3 5 0 9 -6 9 -6 0 -8 5 -5 10 3 6 1
10 -4 10 -6 0 -11 6 -11 13 0 7 -9 20 -20 30 -22 19 -35 22 -25 8 3 -5 2 -12
-2 -14 -5 -3 -6 -35 -5 -71 3 -60 6 -67 28 -72 13 -3 21 -10 18 -16 -3 -5 5
-8 18 -7 12 1 52 1 88 0 49 -1 61 -4 50 -12 -11 -8 -9 -8 10 -3 29 9 54 9 90
0 21 -5 20 -4 -5 8 l-30 15 52 23 c29 13 53 27 53 31 0 5 -5 5 -10 2 -5 -3
-10 -2 -10 4 0 5 5 13 10 16 20 12 11 100 -14 138 -18 27 -21 38 -13 48 10 11
9 11 -5 0 -14 -11 -21 -10 -40 3 -12 9 -18 16 -13 16 6 1 -1 8 -15 16 -14 8
-17 13 -7 10 11 -4 16 -2 12 5 -4 5 -15 7 -24 4 -22 -7 -53 4 -45 16 3 5 -3 6
-12 2 -12 -4 -15 -3 -10 5 4 8 2 10 -7 6 -17 -6 -67 50 -67 74 0 22 10 34 36
49 42 23 148 -4 112 -29 -9 -7 -7 -8 7 -4 15 4 24 -3 36 -29 11 -23 13 -35 5
-35 -6 0 -4 -4 3 -9 28 -18 51 6 51 52 0 51 -9 89 -20 82 -4 -3 -23 1 -41 9
-51 21 -108 25 -167 12z"/>
<path d="M3684 3482 c-5 -4 -15 -25 -22 -47 -31 -94 -45 -124 -53 -119 -5 3
-7 -1 -4 -8 5 -14 -28 -111 -36 -104 -2 2 -5 -6 -5 -18 -1 -13 -12 -45 -24
-72 -13 -27 -24 -56 -26 -64 -3 -18 -54 -60 -71 -60 -6 0 -15 -5 -19 -12 -4
-6 -3 -8 3 -5 6 4 14 0 17 -9 3 -8 10 -13 16 -9 5 3 19 1 31 -6 12 -6 19 -7
16 -2 -3 4 22 9 55 11 38 1 57 -1 53 -8 -3 -5 -1 -10 4 -10 6 0 11 5 11 11 0
6 7 9 14 6 23 -9 8 19 -19 37 -14 9 -31 16 -40 16 -8 0 -15 5 -15 11 0 5 6 7
13 3 8 -5 8 -2 -2 9 -9 12 -10 17 -2 17 7 0 10 4 7 9 -3 5 2 30 11 55 l17 46
84 0 c81 0 84 -1 79 -21 -3 -12 -3 -18 1 -15 3 4 12 -8 19 -26 10 -23 11 -34
3 -36 -7 -3 -4 -10 7 -18 17 -14 17 -15 -2 -29 -11 -8 -29 -21 -40 -29 l-20
-15 20 -15 c11 -8 22 -10 23 -5 2 5 8 9 14 9 6 0 8 -7 4 -15 -3 -9 0 -15 9
-15 8 0 12 6 10 13 -4 9 14 12 70 12 41 0 75 -3 75 -7 0 -5 5 -8 11 -8 5 0 7
5 4 10 -3 6 -1 10 4 10 6 0 11 7 11 15 0 8 -7 15 -15 15 -8 0 -15 4 -15 9 0 5
-9 11 -21 14 -11 3 -19 11 -18 19 1 7 -12 44 -30 82 -18 37 -30 75 -27 83 4 9
2 11 -6 7 -8 -5 -9 -2 -5 10 4 10 3 15 -3 11 -6 -3 -10 -2 -10 4 0 6 -11 35
-25 66 -14 31 -23 60 -20 65 3 6 1 10 -5 10 -7 0 -9 7 -6 16 3 8 2 12 -4 9 -5
-3 -13 10 -19 30 -9 34 -41 77 -41 55 0 -7 -6 -8 -18 -1 -10 5 -22 7 -28 3z
m18 -166 c-2 -9 1 -16 6 -16 8 0 42 -69 42 -86 0 -2 -26 -4 -59 -3 l-58 2 25
64 c14 35 30 62 36 60 6 -2 10 -11 8 -21z"/>
<path d="M1259 3449 c13 -10 29 -19 36 -19 32 0 40 -33 45 -194 4 -132 8 -166
23 -187 10 -15 16 -31 15 -35 -2 -5 0 -9 3 -9 4 0 16 -9 28 -19 12 -11 21 -15
21 -11 0 5 5 4 12 -3 7 -7 20 -12 30 -12 10 0 18 -5 18 -10 0 -17 153 -3 197
17 21 9 45 17 53 18 8 0 14 8 12 16 -1 9 5 22 13 29 8 7 15 19 15 27 0 8 3 12
8 10 8 -6 7 -10 18 186 4 89 11 137 18 137 6 0 5 4 -3 9 -11 7 -9 11 8 21 13
6 28 9 35 7 14 -5 39 27 29 37 -4 3 -55 6 -115 6 -89 0 -108 -3 -108 -15 0 -8
6 -15 13 -15 8 0 7 -4 -3 -10 -9 -6 -10 -10 -3 -10 6 0 20 -3 30 -6 15 -5 16
-4 3 6 -13 9 -12 11 5 8 12 -2 19 -11 19 -21 -1 -9 2 -14 6 -12 24 15 23 -266
0 -289 -6 -6 -10 -18 -10 -28 0 -10 -7 -18 -16 -18 -8 0 -13 -4 -9 -10 11 -18
-47 -44 -104 -45 -62 -2 -80 3 -60 16 9 5 4 8 -16 6 -25 -2 -32 4 -54 43 -23
41 -25 59 -29 183 -3 122 -2 141 14 158 11 12 24 17 37 13 12 -4 17 -2 13 4
-3 5 4 12 15 15 12 3 18 10 14 17 -4 7 -55 10 -153 9 -146 -1 -147 -1 -123
-20z"/>
<path d="M2016 3455 c4 -8 11 -15 18 -15 6 0 4 -5 -4 -11 -12 -9 -11 -10 7 -6
14 3 28 -2 39 -14 16 -18 16 -28 1 -172 -25 -230 -25 -227 -53 -227 -8 0 -14
-4 -14 -9 0 -5 -9 -11 -20 -14 -40 -10 -12 -32 43 -33 29 -1 78 -4 109 -8 31
-4 59 -3 62 2 2 4 -7 8 -22 7 -15 -2 -19 0 -9 2 9 2 17 9 17 14 0 5 -8 13 -17
16 -30 12 -54 39 -56 64 -1 13 2 80 6 148 l9 125 29 -63 c16 -34 26 -67 23
-73 -4 -6 -3 -8 3 -5 9 6 39 -59 35 -75 -1 -5 3 -8 9 -8 6 0 8 -7 5 -17 -4
-10 -4 -14 0 -10 4 4 20 -18 35 -49 20 -39 38 -61 63 -75 20 -10 36 -15 36 -9
0 5 -8 10 -17 11 -11 0 -13 3 -5 6 6 2 12 10 12 16 1 7 9 30 20 52 11 22 19
43 20 47 0 17 44 108 52 108 4 0 8 8 8 18 0 17 45 122 53 122 2 0 4 -24 5 -52
2 -29 6 -91 10 -136 8 -82 0 -127 -23 -127 -16 -1 -55 -25 -55 -34 0 -14 113
-22 195 -15 82 7 97 22 41 42 -19 7 -37 20 -41 29 -6 17 -35 305 -35 356 0 21
7 31 35 44 61 29 45 43 -49 43 -92 0 -127 -7 -104 -21 10 -7 11 -12 1 -29 -7
-11 -13 -25 -13 -32 -1 -7 -9 -31 -20 -53 -11 -22 -19 -46 -20 -52 0 -7 -4
-13 -8 -13 -4 0 -14 6 -21 13 -11 10 -11 8 -2 -10 14 -27 14 -36 1 -28 -5 3
-7 0 -4 -9 3 -8 -3 -29 -12 -48 -10 -18 -19 -40 -20 -48 -2 -8 -7 -16 -13 -18
-5 -2 -7 -10 -4 -18 3 -8 2 -14 -1 -14 -5 0 -66 126 -66 136 0 2 8 1 18 -2 14
-5 14 -4 2 4 -8 6 -17 9 -21 6 -9 -5 -21 25 -13 37 3 5 0 9 -6 9 -7 0 -9 7 -6
17 4 10 4 14 0 10 -7 -7 -24 21 -49 81 -8 18 -10 30 -5 27 6 -3 10 -1 10 4 0
6 -5 11 -11 11 -6 0 -9 6 -6 14 8 21 -14 26 -109 26 -70 0 -82 -2 -78 -15z"/>
<path d="M2828 3464 c-12 -11 0 -23 38 -39 20 -8 33 -19 29 -25 -3 -5 -1 -10
5 -10 14 0 13 -347 -2 -373 -5 -10 -15 -16 -23 -14 -15 6 -58 -30 -50 -43 3
-4 15 -6 27 -2 12 3 19 1 15 -5 -3 -5 5 -8 21 -7 91 10 171 10 165 1 -3 -5 8
-2 25 9 l32 18 -37 18 c-20 10 -43 18 -50 18 -17 0 -17 37 0 43 10 4 10 6 0 6
-9 1 -13 22 -13 71 0 39 3 70 6 70 32 0 121 -118 110 -146 -4 -9 -2 -12 5 -8
12 7 46 -35 41 -51 -2 -5 0 -7 3 -3 4 4 22 -4 39 -17 37 -28 89 -39 131 -27
37 11 47 42 13 42 -24 0 -98 54 -98 72 0 5 -11 24 -25 42 -14 17 -29 36 -33
41 -5 6 -10 15 -12 20 -2 6 -10 16 -18 24 -12 12 -12 15 2 23 9 5 20 7 25 4 5
-3 27 14 50 39 53 58 57 107 11 158 -16 19 -28 36 -26 38 6 6 -34 9 -224 15
-96 3 -178 2 -182 -2z m267 -44 c3 -5 15 -10 26 -10 27 0 53 -34 55 -73 3 -42
-3 -49 -29 -36 -21 10 -21 10 -3 -5 12 -10 16 -19 10 -25 -28 -25 -144 -42
-144 -21 0 6 6 10 13 10 9 0 9 2 -1 9 -16 10 -14 141 2 141 6 0 4 5 -4 10 -11
7 -4 10 27 10 23 0 45 -4 48 -10z"/>
<path d="M3127 3363 c-4 -3 -7 -11 -7 -17 0 -6 5 -5 12 2 6 6 9 14 7 17 -3 3
-9 2 -12 -2z"/>
<path d="M4090 3455 c0 -8 5 -15 11 -15 5 0 7 -5 4 -11 -4 -6 -1 -9 6 -8 22 4
66 -18 73 -36 10 -27 7 -53 -6 -58 -10 -4 -10 -6 0 -6 9 -1 12 -36 12 -139 0
-154 -2 -160 -67 -187 -35 -16 -39 -20 -27 -32 8 -8 18 -11 24 -8 5 3 10 0 10
-7 0 -9 3 -9 8 -2 5 7 27 9 67 4 33 -4 63 -3 66 2 3 5 13 6 23 2 11 -4 24 1
37 15 l20 21 -26 0 c-28 0 -66 16 -77 34 -4 5 -7 75 -6 154 0 139 1 143 19
126 10 -9 16 -21 13 -26 -3 -4 0 -7 8 -6 7 2 12 -3 11 -9 -2 -7 1 -12 7 -10
14 3 100 -95 93 -107 -3 -6 -2 -8 2 -3 11 9 66 -43 59 -55 -3 -5 0 -7 8 -6 7
2 12 -4 10 -12 -2 -8 0 -12 4 -7 9 8 54 -31 54 -47 0 -18 67 -66 92 -66 l23 0
0 218 c0 236 -2 227 58 265 15 10 27 22 27 27 0 6 -47 10 -115 10 -96 0 -115
-3 -115 -15 0 -8 5 -15 11 -15 5 0 8 -4 5 -9 -4 -5 2 -7 11 -5 10 3 27 -2 38
-10 18 -13 20 -27 22 -157 l3 -142 -26 24 c-38 35 -49 60 -33 70 10 7 6 8 -11
6 -18 -3 -34 5 -55 26 -16 17 -24 27 -16 22 10 -5 12 -4 7 4 -4 6 -11 9 -15 7
-3 -3 -49 40 -100 95 l-94 99 -78 0 c-64 0 -79 -3 -79 -15z"/>
<path d="M4275 3450 c3 -5 11 -10 16 -10 6 0 7 5 4 10 -3 6 -11 10 -16 10 -6
0 -7 -4 -4 -10z"/>
<path d="M2654 3414 c-18 -14 -18 -15 4 -4 12 6 22 13 22 15 0 8 -5 6 -26 -11z"/>
<path d="M1465 3410 c-3 -5 -1 -10 4 -10 6 0 11 5 11 10 0 6 -2 10 -4 10 -3 0
-8 -4 -11 -10z"/>
<path d="M736 3315 c-9 -26 -7 -32 5 -12 6 10 9 21 6 23 -2 3 -7 -2 -11 -11z"/>
<path d="M3020 3176 c0 -2 7 -6 15 -10 8 -3 15 -1 15 4 0 6 -7 10 -15 10 -8 0
-15 -2 -15 -4z"/>
<path d="M4350 3170 c0 -5 5 -10 10 -10 6 0 10 5 10 10 0 6 -4 10 -10 10 -5 0
-10 -4 -10 -10z"/>
<path d="M3055 3129 c-4 -6 -5 -12 -2 -15 2 -3 7 2 10 11 7 17 1 20 -8 4z"/>
<path d="M4402 3108 c-7 -7 -12 -17 -12 -22 0 -6 5 -3 11 7 6 9 15 15 20 11 6
-3 5 -12 -3 -22 -12 -15 -11 -16 5 -3 13 10 15 17 6 27 -14 17 -12 17 -27 2z"/>
<path d="M1673 3045 c0 -8 4 -12 9 -9 5 3 6 10 3 15 -9 13 -12 11 -12 -6z"/>
<path d="M4150 3056 c0 -2 7 -7 16 -10 8 -3 12 -2 9 4 -6 10 -25 14 -25 6z"/>
<path d="M850 3035 c7 -8 17 -15 22 -15 5 0 3 7 -6 15 -8 8 -18 15 -22 15 -3
0 -1 -7 6 -15z"/>
<path d="M2010 3041 c0 -10 19 -25 25 -20 1 2 -3 10 -11 17 -8 7 -14 8 -14 3z"/>
<path d="M2665 3039 c-4 -6 -5 -12 -2 -15 2 -3 7 2 10 11 7 17 1 20 -8 4z"/>
<path d="M3778 3028 c5 -5 16 -8 23 -6 8 3 3 7 -10 11 -17 4 -21 3 -13 -5z"/>
<path d="M3940 3030 c0 -5 5 -10 11 -10 5 0 7 5 4 10 -3 6 -8 10 -11 10 -2 0
-4 -4 -4 -10z"/>
<path d="M4500 3031 c0 -6 4 -13 10 -16 6 -3 7 1 4 9 -7 18 -14 21 -14 7z"/>
<path d="M1618 3023 c6 -2 18 -2 25 0 6 3 1 5 -13 5 -14 0 -19 -2 -12 -5z"/>
<path d="M3121 3007 c-13 -21 -12 -21 5 -5 10 10 16 20 13 22 -3 3 -11 -5 -18
-17z"/>
<path d="M4497 2999 c7 -7 15 -10 18 -7 3 3 -2 9 -12 12 -14 6 -15 5 -6 -5z"/>
<path d="M2380 2980 c-9 -6 -10 -10 -3 -10 6 0 15 5 18 10 8 12 4 12 -15 0z"/>
<path d="M1070 2970 c-8 -5 -10 -10 -5 -10 6 0 17 5 25 10 8 5 11 10 5 10 -5
0 -17 -5 -25 -10z"/>
<path d="M1678 2943 c7 -3 16 -2 19 1 4 3 -2 6 -13 5 -11 0 -14 -3 -6 -6z"/>
<path d="M3212 2941 c-11 -6 -10 -10 4 -15 9 -3 19 -4 22 -1 3 3 -1 5 -9 5
-11 0 -11 2 1 10 8 5 11 10 5 10 -5 0 -16 -4 -23 -9z"/>
<path d="M768 2933 c7 -3 16 -2 19 1 4 3 -2 6 -13 5 -11 0 -14 -3 -6 -6z"/>
<path d="M1503 2923 c9 -2 25 -2 35 0 9 3 1 5 -18 5 -19 0 -27 -2 -17 -5z"/>
<path d="M1650 2650 c8 -5 22 -9 30 -9 10 0 8 3 -5 9 -27 12 -43 12 -25 0z"/>
<path d="M1680 2625 c-36 -13 -71 -22 -78 -20 -7 3 -10 0 -7 -6 4 -6 13 -8 20
-5 10 3 8 -7 -5 -37 -19 -42 -17 -76 5 -129 16 -39 126 -81 142 -55 2 4 20 5
39 1 l34 -6 0 63 c0 35 -5 71 -10 79 -6 10 -10 11 -10 3 0 -7 -10 -13 -22 -13
-19 0 -20 2 -8 11 12 9 11 9 -5 3 -11 -4 -28 -7 -37 -8 -12 0 -14 -4 -7 -12 5
-6 7 -20 3 -30 -4 -12 -3 -15 3 -7 12 16 53 5 53 -14 0 -9 -6 -13 -15 -9 -8 3
-14 0 -12 -6 1 -6 -11 -15 -26 -20 -21 -8 -34 -6 -55 8 -16 10 -22 19 -14 22
6 2 12 8 12 13 0 6 -4 7 -10 4 -5 -3 -10 1 -10 9 0 9 -4 16 -10 16 -5 0 -10 9
-10 20 0 11 5 20 10 20 6 0 10 5 10 11 0 5 -6 7 -12 4 -7 -4 -5 0 4 8 10 8 15
17 12 20 -3 3 6 13 20 22 30 20 81 13 72 -10 -3 -9 0 -12 8 -9 8 3 17 0 22 -7
4 -7 3 -10 -3 -6 -6 4 -17 -1 -24 -11 -12 -15 -12 -16 2 -5 12 10 18 10 29 0
9 -9 11 -9 6 0 -3 6 1 16 11 21 16 9 16 11 0 36 -10 14 -29 29 -44 32 -25 7
-25 8 -8 15 51 20 -17 5 -75 -16z"/>
<path d="M2201 2643 c1 -5 1 -12 0 -18 -6 -35 2 -252 10 -260 20 -20 31 15 31
95 0 58 3 80 11 77 7 -3 11 -10 10 -16 -2 -6 2 -11 8 -11 6 0 9 -7 6 -14 -4
-11 -1 -13 10 -9 13 5 15 2 10 -11 -4 -9 -3 -15 2 -12 4 3 19 -6 31 -19 13
-14 19 -25 15 -25 -5 0 1 -7 13 -16 19 -13 20 -18 10 -37 -10 -20 -10 -21 5
-9 8 7 24 12 34 10 17 -3 18 7 18 126 0 124 -1 129 -22 137 -23 8 -23 7 -24
-84 0 -65 -3 -85 -9 -69 -5 12 -16 22 -25 22 -8 0 -15 5 -15 10 0 6 -9 19 -20
30 -12 12 -18 26 -14 32 4 6 3 8 -3 5 -5 -3 -25 12 -43 34 -32 36 -52 49 -49
32z"/>
<path d="M2770 2640 c-8 -5 -27 -11 -42 -14 -29 -7 -91 -63 -83 -76 3 -5 1
-20 -5 -34 -7 -18 -5 -33 5 -53 19 -36 19 -44 -2 -37 -15 5 -15 4 -3 -4 8 -6
17 -9 21 -6 4 2 14 -4 21 -14 36 -51 181 -38 185 16 2 30 -15 37 -38 16 -11
-10 -36 -18 -60 -18 -34 -1 -45 4 -61 26 -47 61 15 175 81 151 14 -5 26 -16
25 -24 -1 -14 7 -16 47 -10 3 1 6 15 6 31 0 17 -3 26 -7 20 -4 -6 -13 -5 -26
5 -10 8 -28 15 -39 15 l-20 1 20 9 c13 5 15 9 5 9 -8 0 -22 -4 -30 -9z"/>
<path d="M3760 2646 c0 -2 9 -6 20 -9 11 -3 18 -1 14 4 -5 9 -34 13 -34 5z"/>
<path d="M4370 2646 c0 -2 11 -6 25 -8 13 -3 22 -1 19 3 -5 9 -44 13 -44 5z"/>
<path d="M1084 2625 c-17 -8 -36 -21 -43 -29 -7 -9 -16 -14 -20 -12 -4 3 -7
-3 -8 -12 -1 -9 -6 -36 -11 -59 -5 -24 -5 -43 -1 -43 5 0 9 -5 9 -12 0 -19 50
-78 66 -78 8 0 13 -4 10 -8 -3 -5 16 -5 42 -2 26 4 53 5 61 2 9 -3 12 -1 7 6
-8 13 23 31 44 25 13 -4 13 -3 0 6 -12 9 -13 13 -2 20 8 4 13 11 13 15 -1 3
-1 8 0 11 6 35 1 93 -9 103 -7 8 -9 18 -6 24 4 7 2 8 -4 4 -7 -4 -12 -3 -12 3
0 12 -44 36 -80 44 -14 2 -39 -1 -56 -8z m94 -56 c18 -17 32 -36 32 -43 0 -6
-5 -4 -10 4 -5 8 -10 10 -10 4 0 -6 3 -14 7 -18 12 -11 13 -46 2 -46 -5 0 -8
-4 -4 -9 3 -6 -7 -21 -22 -35 -33 -31 -67 -26 -100 13 -34 39 -31 94 7 131 39
38 58 38 98 -1z"/>
<path d="M1070 2549 c0 -5 5 -7 10 -4 6 3 10 8 10 11 0 2 -4 4 -10 4 -5 0 -10
-5 -10 -11z"/>
<path d="M1336 2633 c-3 -4 -6 -50 -6 -103 0 -61 -4 -100 -12 -108 -9 -9 -9
-12 1 -12 8 0 11 -6 7 -15 -6 -17 29 -41 39 -25 3 5 13 6 23 3 15 -6 15 -4 -2
15 -11 12 -15 22 -9 22 6 0 8 11 5 25 -4 21 -1 25 20 25 14 0 33 -9 43 -20 18
-20 18 -21 -1 -15 -17 6 -18 6 -1 -5 9 -6 28 -22 42 -36 46 -46 57 -1 13 55
-18 24 -18 25 2 43 43 40 33 117 -18 136 -33 12 -138 23 -146 15z m134 -60
c15 -20 17 -29 8 -49 -6 -13 -14 -24 -17 -25 -3 0 -23 -1 -45 -2 l-38 -2 -2
52 -1 52 38 -1 c27 0 43 -7 57 -25z"/>
<path d="M3090 2629 c0 -5 -6 -7 -12 -3 -10 6 -10 4 0 -8 9 -12 13 -49 11
-128 -1 -80 2 -115 11 -120 9 -6 9 -9 -1 -13 -8 -3 -9 -6 -3 -6 20 -2 35 26
35 65 1 69 6 76 52 74 62 -3 67 -1 67 15 0 12 -13 15 -60 15 l-60 0 0 38 0 37
67 1 c56 0 69 3 71 17 3 15 -6 17 -65 18 -37 0 -78 2 -90 5 -13 2 -23 -1 -23
-7z"/>
<path d="M3420 2618 c-11 -12 -20 -16 -20 -10 0 7 -5 12 -12 12 -8 0 -6 -6 4
-17 16 -15 15 -19 -5 -57 -11 -23 -20 -44 -19 -48 1 -5 -3 -8 -10 -8 -6 0 -8
-3 -5 -6 3 -4 1 -16 -5 -28 -13 -23 -14 -27 -24 -70 -6 -25 -4 -28 10 -23 10
4 21 7 26 7 5 0 11 14 15 30 4 17 11 28 16 25 5 -4 6 1 3 9 -5 12 1 16 26 16
20 0 29 -4 24 -11 -5 -8 -1 -8 14 0 18 9 23 6 42 -24 12 -20 20 -41 17 -49 -3
-7 1 -13 9 -13 7 0 11 4 8 9 -3 4 2 8 10 8 10 0 14 10 14 30 -1 17 -5 27 -11
23 -6 -4 -8 2 -5 15 4 14 2 20 -5 15 -6 -4 -8 2 -5 15 4 16 2 22 -10 22 -8 0
-12 3 -9 7 4 3 2 12 -5 20 -6 7 -8 16 -5 19 3 4 -1 13 -9 21 -8 9 -13 22 -10
30 3 8 1 11 -4 8 -6 -3 -10 3 -10 13 0 29 -27 34 -50 10z m19 -90 c-11 -20
-10 -21 3 -11 12 11 17 9 26 -12 10 -22 9 -25 -8 -25 -11 0 -20 5 -20 11 0 8
-5 8 -15 -1 -21 -17 -20 3 2 41 20 33 30 31 12 -3z"/>
<path d="M3923 2633 c-10 -3 -13 -39 -13 -133 0 -135 6 -152 45 -124 10 8 13
14 7 14 -19 0 -11 80 8 80 13 1 13 2 0 13 -16 13 -24 60 -9 51 5 -3 7 -9 4
-13 -2 -5 4 -16 15 -26 15 -13 17 -22 9 -36 -7 -15 -6 -17 5 -13 8 3 19 -3 26
-15 6 -12 15 -21 20 -21 4 0 27 26 49 57 l41 58 0 -77 c0 -78 6 -93 33 -82 12
4 15 29 15 127 1 70 -4 127 -10 134 -17 20 -44 -2 -73 -58 -14 -28 -31 -59
-39 -70 -13 -19 -14 -19 -28 3 -8 13 -27 46 -41 74 -26 52 -41 65 -64 57z"/>
<path d="M1967 2572 c-15 -32 -27 -63 -27 -70 0 -7 -5 -12 -10 -12 -5 0 -9 -3
-8 -7 3 -14 -14 -63 -21 -59 -3 2 -7 -11 -8 -30 -5 -57 39 -39 56 23 6 23 13
28 42 30 52 3 70 -6 85 -43 9 -22 21 -34 34 -34 11 0 20 4 20 9 0 5 3 18 6 28
5 15 4 15 -5 3 -8 -11 -11 -11 -12 -2 -2 18 -4 23 -31 82 -23 51 -42 110 -38
119 3 7 -24 21 -41 21 -9 0 -26 -23 -42 -58z m55 -46 c3 2 8 -2 11 -11 4 -8 1
-15 -6 -15 -8 0 -6 -4 3 -10 11 -7 6 -10 -22 -10 -29 0 -36 3 -32 15 4 8 10
15 15 15 4 0 5 8 2 18 -6 14 -4 15 9 5 8 -7 17 -10 20 -7z"/>
<path d="M2520 2625 c-5 -67 1 -250 8 -257 25 -25 32 7 32 133 0 122 -1 129
-20 129 -11 0 -20 -2 -20 -5z"/>
<path d="M3629 2623 c-1 -4 0 -57 0 -117 1 -73 -2 -113 -11 -125 -7 -9 -8 -13
-4 -9 5 4 15 3 23 -3 19 -16 45 8 43 40 -1 14 -2 32 -1 39 2 20 52 10 65 -12
20 -36 60 -76 70 -73 6 2 11 15 11 30 1 14 -2 24 -7 21 -4 -3 -14 9 -22 25
-15 28 -15 30 4 36 11 3 19 9 18 13 -1 4 2 15 7 25 4 9 4 30 0 45 -3 15 -7 34
-8 42 -2 18 -6 19 -109 26 -43 3 -78 2 -79 -3z m148 -52 c12 -16 8 -48 -7 -64
-4 -5 -26 -11 -49 -14 l-41 -6 0 58 0 57 42 -7 c24 -4 48 -15 55 -24z"/>
<path d="M4292 2618 c-12 -6 -25 -22 -27 -35 -3 -12 -7 -34 -10 -48 -3 -14 -2
-24 2 -23 5 1 19 -3 33 -9 14 -6 43 -17 65 -25 22 -8 40 -18 40 -23 0 -6 4
-15 8 -21 22 -36 -77 -42 -116 -7 -20 19 -29 13 -33 -23 -2 -21 1 -25 17 -21
10 3 22 1 25 -4 9 -15 108 -10 131 6 17 12 23 12 27 2 3 -6 3 -2 0 10 -3 12 0
31 6 43 6 11 7 20 1 20 -5 0 -12 7 -15 16 -5 12 -2 15 9 10 10 -3 13 -2 10 5
-4 6 -13 8 -20 5 -21 -8 -143 43 -141 59 3 21 27 45 45 45 9 0 29 -7 45 -15
15 -8 32 -13 36 -10 5 3 11 -1 13 -7 4 -9 6 -8 6 2 2 49 -93 78 -157 48z"/>
<path d="M4318 2563 c7 -3 16 -2 19 1 4 3 -2 6 -13 5 -11 0 -14 -3 -6 -6z"/>
<path d="M4385 2560 c-3 -5 -1 -10 4 -10 6 0 11 5 11 10 0 6 -2 10 -4 10 -3 0
-8 -4 -11 -10z"/>
<path d="M1700 2450 c0 -5 5 -10 11 -10 5 0 7 5 4 10 -3 6 -8 10 -11 10 -2 0
-4 -4 -4 -10z"/>
<path d="M3198 2453 c6 -2 18 -2 25 0 6 3 1 5 -13 5 -14 0 -19 -2 -12 -5z"/>
<path d="M4288 2453 c6 -2 18 -2 25 0 6 3 1 5 -13 5 -14 0 -19 -2 -12 -5z"/>
<path d="M4345 2450 c-13 -6 -15 -9 -5 -9 8 0 22 4 30 9 18 12 2 12 -25 0z"/>
<path d="M3465 2429 c-4 -6 -5 -12 -2 -15 2 -3 7 2 10 11 7 17 1 20 -8 4z"/>
<path d="M1610 2395 c13 -14 28 -25 33 -25 12 0 -35 50 -47 50 -5 0 1 -11 14
-25z"/>
<path d="M4028 2393 c6 -2 18 -2 25 0 6 3 1 5 -13 5 -14 0 -19 -2 -12 -5z"/>
<path d="M1030 2386 c0 -2 8 -10 18 -17 15 -13 16 -12 3 4 -13 16 -21 21 -21
13z"/>
<path d="M1215 2380 c3 -5 8 -10 11 -10 2 0 4 5 4 10 0 6 -5 10 -11 10 -5 0
-7 -4 -4 -10z"/>
<path d="M2331 2368 c-14 -23 -14 -23 8 -4 22 20 25 26 13 26 -4 0 -13 -10
-21 -22z"/>
<path d="M1760 2366 c0 -2 7 -7 16 -10 8 -3 12 -2 9 4 -6 10 -25 14 -25 6z"/>
<path d="M4360 1920 c0 -5 5 -10 11 -10 5 0 7 5 4 10 -3 6 -8 10 -11 10 -2 0
-4 -4 -4 -10z"/>
<path d="M4726 1763 c-6 -14 -5 -15 5 -6 7 7 10 15 7 18 -3 3 -9 -2 -12 -12z"/>
<path d="M2458 1593 c7 -3 16 -2 19 1 4 3 -2 6 -13 5 -11 0 -14 -3 -6 -6z"/>
<path d="M3548 1583 c7 -3 16 -2 19 1 4 3 -2 6 -13 5 -11 0 -14 -3 -6 -6z"/>
<path d="M4590 1579 c0 -5 5 -7 10 -4 6 3 10 8 10 11 0 2 -4 4 -10 4 -5 0 -10
-5 -10 -11z"/>
<path d="M4525 1540 c-3 -5 -1 -10 4 -10 6 0 11 5 11 10 0 6 -2 10 -4 10 -3 0
-8 -4 -11 -10z"/>
<path d="M4070 1366 c0 -2 7 -7 16 -10 8 -3 12 -2 9 4 -6 10 -25 14 -25 6z"/>
<path d="M760 1276 c0 -2 7 -9 15 -16 13 -11 14 -10 9 4 -5 14 -24 23 -24 12z"/>
<path d="M4029 1263 c-13 -16 -12 -17 4 -4 16 13 21 21 13 21 -2 0 -10 -8 -17
-17z"/>
<path d="M3570 1160 c-9 -6 -10 -10 -3 -10 6 0 15 5 18 10 8 12 4 12 -15 0z"/>
<path d="M2168 733 c7 -3 16 -2 19 1 4 3 -2 6 -13 5 -11 0 -14 -3 -6 -6z"/>
<path d="M4335 1460 c3 -5 8 -10 11 -10 2 0 4 5 4 10 0 6 -5 10 -11 10 -5 0
-7 -4 -4 -10z"/>
<path d="M909 1306 c14 -15 26 -26 28 -26 9 0 -24 40 -37 45 -8 4 -4 -5 9 -19z"/>
<path d="M4044 1184 c-18 -14 -18 -15 4 -4 12 6 22 13 22 15 0 8 -5 6 -26 -11z"/>
<path d="M3618 953 c7 -3 16 -2 19 1 4 3 -2 6 -13 5 -11 0 -14 -3 -6 -6z"/>
<path d="M1540 5020 c-9 -6 -10 -10 -3 -10 6 0 15 5 18 10 8 12 4 12 -15 0z"/>
<path d="M2035 4860 c-3 -6 1 -7 9 -4 18 7 21 14 7 14 -6 0 -13 -4 -16 -10z"/>
<path d="M1558 4723 c7 -3 16 -2 19 1 4 3 -2 6 -13 5 -11 0 -14 -3 -6 -6z"/>
<path d="M1097 4713 c-4 -3 -7 -11 -7 -17 0 -6 5 -5 12 2 6 6 9 14 7 17 -3 3
-9 2 -12 -2z"/>
<path d="M1518 4713 c7 -3 16 -2 19 1 4 3 -2 6 -13 5 -11 0 -14 -3 -6 -6z"/>
<path d="M1310 4630 c-8 -5 -10 -10 -5 -10 6 0 17 5 25 10 8 5 11 10 5 10 -5
0 -17 -5 -25 -10z"/>
<path d="M1065 4571 l20 -8 -20 -6 -20 -6 20 2 c24 3 23 21 -2 24 -15 2 -14 1
2 -6z"/>
<path d="M993 4563 c9 -2 25 -2 35 0 9 3 1 5 -18 5 -19 0 -27 -2 -17 -5z"/>
<path d="M5230 2461 c0 -5 5 -13 10 -16 6 -3 10 -2 10 4 0 5 -4 13 -10 16 -5
3 -10 2 -10 -4z"/>
<path d="M4855 1739 c-4 -6 -5 -12 -2 -15 2 -3 7 2 10 11 7 17 1 20 -8 4z"/>
<path d="M1050 966 c0 -2 8 -10 18 -17 15 -13 16 -12 3 4 -13 16 -21 21 -21
13z"/>
<path d="M3445 400 c-16 -7 -17 -9 -3 -9 9 -1 20 4 23 9 7 11 7 11 -20 0z"/>
<path d="M3178 333 c7 -3 16 -2 19 1 4 3 -2 6 -13 5 -11 0 -14 -3 -6 -6z"/>
</g>
</svg>
